<?xml version="1.0" encoding="UTF-8"?>
<svg xmlns="http://www.w3.org/2000/svg" xmlns:xlink="http://www.w3.org/1999/xlink" width="375pt" height="374.999991pt" viewBox="0 0 375 374.999991" version="1.2">
<defs>
<clipPath id="clip1">
  <path d="M 22.601562 22.601562 L 352.601562 22.601562 L 352.601562 352.601562 L 22.601562 352.601562 Z M 22.601562 22.601562 "/>
</clipPath>
</defs>
<g id="surface1">
<g clip-path="url(#clip1)" clip-rule="nonzero">
<path style=" stroke:none;fill-rule:nonzero;fill:rgb(49.798584%,54.119873%,59.21936%);fill-opacity:1;" d="M 297.851562 22.601562 L 77.355469 22.601562 C 75.5625 22.605469 73.773438 22.695312 71.988281 22.871094 C 70.207031 23.050781 68.433594 23.316406 66.675781 23.667969 C 64.917969 24.019531 63.183594 24.453125 61.46875 24.976562 C 59.753906 25.5 58.070312 26.101562 56.414062 26.789062 C 54.757812 27.476562 53.140625 28.242188 51.558594 29.089844 C 49.976562 29.933594 48.441406 30.855469 46.953125 31.851562 C 45.460938 32.847656 44.023438 33.914062 42.640625 35.050781 C 41.253906 36.191406 39.925781 37.390625 38.660156 38.660156 C 37.390625 39.925781 36.191406 41.253906 35.050781 42.640625 C 33.914062 44.023438 32.847656 45.460938 31.851562 46.953125 C 30.855469 48.441406 29.933594 49.976562 29.089844 51.558594 C 28.242188 53.140625 27.476562 54.757812 26.789062 56.414062 C 26.101562 58.070312 25.5 59.753906 24.976562 61.46875 C 24.453125 63.183594 24.019531 64.917969 23.667969 66.675781 C 23.316406 68.433594 23.050781 70.207031 22.871094 71.988281 C 22.695312 73.773438 22.605469 75.5625 22.601562 77.355469 L 22.601562 297.867188 C 22.605469 299.65625 22.695312 301.445312 22.875 303.230469 C 23.050781 305.011719 23.316406 306.78125 23.667969 308.539062 C 24.019531 310.296875 24.457031 312.035156 24.980469 313.746094 C 25.5 315.460938 26.105469 317.148438 26.792969 318.800781 C 27.480469 320.457031 28.246094 322.074219 29.09375 323.65625 C 29.9375 325.234375 30.859375 326.769531 31.855469 328.261719 C 32.851562 329.75 33.921875 331.1875 35.058594 332.570312 C 36.195312 333.957031 37.398438 335.285156 38.664062 336.550781 C 39.933594 337.816406 41.257812 339.019531 42.644531 340.15625 C 44.03125 341.292969 45.46875 342.359375 46.957031 343.355469 C 48.445312 344.351562 49.980469 345.273438 51.5625 346.117188 C 53.144531 346.964844 54.761719 347.730469 56.417969 348.417969 C 58.070312 349.105469 59.757812 349.707031 61.472656 350.230469 C 63.1875 350.75 64.921875 351.1875 66.679688 351.539062 C 68.4375 351.890625 70.207031 352.15625 71.992188 352.332031 C 73.773438 352.511719 75.5625 352.601562 77.355469 352.601562 L 297.851562 352.601562 C 299.644531 352.601562 301.429688 352.511719 303.214844 352.332031 C 305 352.15625 306.769531 351.890625 308.527344 351.539062 C 310.285156 351.1875 312.019531 350.75 313.734375 350.230469 C 315.449219 349.707031 317.132812 349.105469 318.789062 348.417969 C 320.445312 347.730469 322.0625 346.964844 323.644531 346.117188 C 325.222656 345.273438 326.757812 344.351562 328.25 343.355469 C 329.738281 342.359375 331.175781 341.292969 332.5625 340.15625 C 333.945312 339.019531 335.273438 337.816406 336.539062 336.550781 C 337.808594 335.285156 339.011719 333.957031 340.148438 332.574219 C 341.285156 331.1875 342.351562 329.75 343.347656 328.261719 C 344.34375 326.769531 345.265625 325.234375 346.113281 323.65625 C 346.957031 322.074219 347.722656 320.457031 348.410156 318.800781 C 349.097656 317.148438 349.703125 315.460938 350.226562 313.75 C 350.746094 312.035156 351.183594 310.296875 351.535156 308.539062 C 351.886719 306.78125 352.152344 305.011719 352.332031 303.230469 C 352.507812 301.445312 352.601562 299.65625 352.601562 297.867188 L 352.601562 77.355469 C 352.601562 75.5625 352.511719 73.773438 352.332031 71.988281 C 352.15625 70.207031 351.890625 68.433594 351.539062 66.675781 C 351.1875 64.917969 350.75 63.183594 350.230469 61.46875 C 349.707031 59.753906 349.101562 58.070312 348.414062 56.414062 C 347.730469 54.757812 346.960938 53.140625 346.117188 51.558594 C 345.269531 49.976562 344.351562 48.441406 343.351562 46.953125 C 342.355469 45.460938 341.289062 44.023438 340.152344 42.640625 C 339.015625 41.253906 337.8125 39.925781 336.546875 38.660156 C 335.277344 37.390625 333.953125 36.191406 332.566406 35.050781 C 331.179688 33.914062 329.742188 32.847656 328.253906 31.851562 C 326.761719 30.855469 325.226562 29.933594 323.648438 29.089844 C 322.066406 28.242188 320.449219 27.476562 318.792969 26.789062 C 317.136719 26.101562 315.453125 25.5 313.738281 24.976562 C 312.023438 24.453125 310.285156 24.019531 308.527344 23.667969 C 306.769531 23.316406 305 23.050781 303.214844 22.871094 C 301.433594 22.695312 299.644531 22.605469 297.851562 22.601562 Z M 227.949219 311.898438 C 226.859375 312.21875 225.742188 312.410156 224.609375 312.472656 C 223.472656 312.535156 222.34375 312.46875 221.226562 312.269531 C 220.105469 312.070312 219.023438 311.75 217.976562 311.300781 C 216.933594 310.851562 215.953125 310.292969 215.035156 309.617188 C 214.316406 308.988281 213.671875 308.292969 213.105469 307.523438 C 212.539062 306.757812 212.0625 305.9375 211.675781 305.0625 C 211.289062 304.191406 211.003906 303.285156 210.8125 302.351562 C 210.625 301.414062 210.539062 300.46875 210.558594 299.515625 L 210.558594 292.742188 C 210.558594 286.53125 210.660156 277.132812 210.660156 266.34375 C 210.816406 264.792969 210.808594 263.246094 210.636719 261.695312 C 210.464844 260.148438 210.132812 258.636719 209.636719 257.160156 C 209.140625 255.683594 208.496094 254.273438 207.703125 252.933594 C 206.90625 251.59375 205.980469 250.355469 204.921875 249.210938 C 204.410156 248.769531 203.972656 248.265625 203.609375 247.695312 C 203.246094 247.125 202.972656 246.515625 202.789062 245.867188 C 202.601562 245.21875 202.511719 244.558594 202.519531 243.882812 C 202.527344 243.207031 202.632812 242.546875 202.832031 241.902344 C 203.03125 241.257812 203.320312 240.652344 203.695312 240.09375 C 204.074219 239.53125 204.519531 239.039062 205.042969 238.605469 C 205.5625 238.175781 206.132812 237.832031 206.753906 237.566406 C 207.375 237.304688 208.023438 237.132812 208.695312 237.058594 C 234.046875 234.191406 257.476562 225.898438 257.476562 184.300781 C 257.523438 181.757812 257.328125 179.234375 256.890625 176.730469 C 256.457031 174.222656 255.785156 171.78125 254.882812 169.402344 C 253.980469 167.027344 252.859375 164.753906 251.523438 162.589844 C 250.183594 160.429688 248.652344 158.410156 246.929688 156.539062 C 246.492188 156.058594 246.128906 155.523438 245.839844 154.9375 C 245.546875 154.355469 245.34375 153.742188 245.226562 153.101562 C 245.109375 152.457031 245.082031 151.8125 245.144531 151.164062 C 245.207031 150.515625 245.359375 149.886719 245.597656 149.28125 C 246.878906 145.628906 247.542969 141.871094 247.585938 138.003906 C 247.628906 134.132812 247.054688 130.359375 245.855469 126.683594 C 241.460938 127.675781 237.226562 129.125 233.148438 131.035156 C 229.070312 132.941406 225.242188 135.265625 221.664062 138.003906 C 220.824219 138.570312 219.902344 138.9375 218.898438 139.101562 C 217.894531 139.269531 216.90625 139.21875 215.925781 138.949219 C 206.652344 136.429688 197.210938 135.140625 187.601562 135.074219 C 178.027344 135.113281 168.617188 136.394531 159.378906 138.921875 C 158.402344 139.195312 157.410156 139.25 156.40625 139.085938 C 155.402344 138.917969 154.480469 138.546875 153.640625 137.972656 C 150.066406 135.226562 146.234375 132.902344 142.144531 131.003906 C 138.058594 129.101562 133.8125 127.664062 129.40625 126.695312 C 128.21875 130.363281 127.648438 134.125 127.695312 137.984375 C 127.746094 141.839844 128.410156 145.585938 129.695312 149.222656 C 129.941406 149.832031 130.097656 150.460938 130.164062 151.113281 C 130.230469 151.765625 130.203125 152.414062 130.085938 153.058594 C 129.972656 153.703125 129.765625 154.316406 129.476562 154.90625 C 129.183594 155.492188 128.816406 156.027344 128.375 156.511719 C 126.648438 158.382812 125.117188 160.398438 123.777344 162.5625 C 122.4375 164.722656 121.316406 166.996094 120.414062 169.371094 C 119.507812 171.75 118.839844 174.191406 118.402344 176.699219 C 117.964844 179.207031 117.769531 181.730469 117.816406 184.273438 C 117.816406 225.882812 142.4375 234.347656 166.511719 237.144531 C 166.964844 237.199219 167.410156 237.292969 167.84375 237.433594 C 168.28125 237.570312 168.695312 237.753906 169.097656 237.972656 C 169.496094 238.195312 169.871094 238.453125 170.21875 238.75 C 170.566406 239.046875 170.882812 239.371094 171.167969 239.730469 C 171.449219 240.085938 171.695312 240.46875 171.90625 240.875 C 172.113281 241.28125 172.28125 241.707031 172.40625 242.144531 C 172.53125 242.585938 172.609375 243.03125 172.648438 243.488281 C 172.683594 243.941406 172.675781 244.398438 172.625 244.851562 C 172.558594 245.296875 172.453125 245.738281 172.304688 246.164062 C 172.15625 246.59375 171.96875 247.003906 171.742188 247.394531 C 171.515625 247.789062 171.253906 248.15625 170.957031 248.496094 C 170.664062 248.839844 170.339844 249.152344 169.984375 249.433594 C 169.628906 249.714844 169.25 249.960938 168.847656 250.171875 C 168.449219 250.382812 168.03125 250.550781 167.597656 250.683594 C 167.164062 250.8125 166.722656 250.902344 166.269531 250.949219 C 165.820312 250.996094 165.371094 251 164.917969 250.960938 C 138.734375 247.921875 103.925781 237.71875 103.925781 184.273438 C 103.890625 181.21875 104.113281 178.183594 104.589844 175.167969 C 105.066406 172.152344 105.796875 169.195312 106.773438 166.300781 C 107.75 163.410156 108.964844 160.617188 110.410156 157.929688 C 111.859375 155.238281 113.523438 152.691406 115.40625 150.285156 C 114.726562 147.558594 114.269531 144.792969 114.035156 141.996094 C 113.796875 139.195312 113.785156 136.394531 113.992188 133.59375 C 114.203125 130.792969 114.632812 128.023438 115.285156 125.292969 C 115.933594 122.558594 116.796875 119.894531 117.871094 117.296875 C 118.25 116.332031 118.816406 115.492188 119.570312 114.78125 C 120.324219 114.066406 121.191406 113.550781 122.175781 113.222656 C 124.34375 112.507812 135.878906 109.980469 158.675781 124.703125 C 168.167969 122.355469 177.804688 121.183594 187.582031 121.183594 C 197.359375 121.183594 206.992188 122.355469 216.484375 124.703125 C 239.253906 109.964844 250.804688 112.492188 252.941406 113.222656 C 253.925781 113.546875 254.792969 114.066406 255.546875 114.777344 C 256.296875 115.484375 256.867188 116.320312 257.246094 117.285156 C 258.34375 119.875 259.226562 122.535156 259.890625 125.269531 C 260.554688 128.003906 260.996094 130.769531 261.214844 133.574219 C 261.429688 136.378906 261.421875 139.183594 261.183594 141.988281 C 260.945312 144.789062 260.484375 147.554688 259.800781 150.285156 C 261.679688 152.691406 263.34375 155.238281 264.792969 157.925781 C 266.238281 160.613281 267.453125 163.402344 268.429688 166.296875 C 269.40625 169.1875 270.132812 172.140625 270.613281 175.15625 C 271.089844 178.171875 271.3125 181.207031 271.277344 184.257812 C 271.277344 230.515625 245.265625 244.347656 221.261719 249.125 C 223.484375 254.652344 224.554688 260.390625 224.476562 266.34375 C 224.476562 277.160156 224.40625 286.574219 224.363281 292.84375 L 224.363281 298.238281 C 226.453125 297.511719 228.519531 296.726562 230.566406 295.878906 C 232.609375 295.03125 234.628906 294.125 236.621094 293.160156 C 238.609375 292.195312 240.570312 291.171875 242.503906 290.09375 C 244.433594 289.011719 246.332031 287.875 248.199219 286.683594 C 250.0625 285.492188 251.890625 284.246094 253.683594 282.945312 C 255.476562 281.648438 257.226562 280.296875 258.941406 278.894531 C 260.652344 277.492188 262.320312 276.042969 263.949219 274.542969 C 265.578125 273.042969 267.160156 271.496094 268.695312 269.90625 C 270.234375 268.3125 271.722656 266.675781 273.164062 264.996094 C 274.601562 263.316406 275.992188 261.59375 277.332031 259.832031 C 278.671875 258.070312 279.960938 256.273438 281.195312 254.433594 C 282.429688 252.597656 283.609375 250.726562 284.734375 248.820312 C 285.855469 246.914062 286.925781 244.976562 287.9375 243.007812 C 288.945312 241.039062 289.898438 239.042969 290.792969 237.019531 C 291.6875 234.992188 292.519531 232.945312 293.292969 230.871094 C 294.066406 228.796875 294.78125 226.703125 295.429688 224.585938 C 296.082031 222.472656 296.667969 220.339844 297.195312 218.1875 C 297.71875 216.039062 298.183594 213.875 298.582031 211.699219 C 298.980469 209.523438 299.3125 207.335938 299.585938 205.140625 C 299.855469 202.941406 300.0625 200.738281 300.203125 198.53125 C 300.34375 196.320312 300.417969 194.113281 300.429688 191.898438 C 300.441406 189.683594 300.390625 187.472656 300.269531 185.261719 C 300.152344 183.054688 299.96875 180.847656 299.722656 178.648438 C 299.476562 176.449219 299.164062 174.261719 298.789062 172.078125 C 298.410156 169.898438 297.972656 167.730469 297.46875 165.574219 C 296.964844 163.417969 296.398438 161.28125 295.769531 159.160156 C 295.144531 157.035156 294.453125 154.933594 293.699219 152.855469 C 292.949219 150.773438 292.136719 148.714844 291.265625 146.679688 C 290.390625 144.648438 289.460938 142.640625 288.46875 140.660156 C 287.480469 138.679688 286.433594 136.734375 285.328125 134.816406 C 284.222656 132.898438 283.0625 131.011719 281.847656 129.164062 C 280.632812 127.3125 279.363281 125.5 278.042969 123.726562 C 276.722656 121.949219 275.347656 120.214844 273.925781 118.519531 C 272.503906 116.824219 271.03125 115.175781 269.511719 113.566406 C 267.992188 111.957031 266.425781 110.394531 264.8125 108.878906 C 263.203125 107.359375 261.546875 105.894531 259.847656 104.472656 C 258.152344 103.054688 256.414062 101.683594 254.636719 100.367188 C 252.855469 99.050781 251.042969 97.785156 249.1875 96.574219 C 247.335938 95.363281 245.449219 94.207031 243.53125 93.105469 C 241.609375 92.003906 239.660156 90.960938 237.679688 89.976562 C 235.695312 88.988281 233.6875 88.0625 231.652344 87.195312 C 229.617188 86.324219 227.558594 85.519531 225.476562 84.769531 C 223.390625 84.023438 221.289062 83.335938 219.164062 82.710938 C 217.042969 82.089844 214.902344 81.527344 212.746094 81.027344 C 210.589844 80.53125 208.421875 80.09375 206.238281 79.722656 C 204.058594 79.351562 201.867188 79.046875 199.667969 78.800781 C 197.464844 78.558594 195.261719 78.382812 193.050781 78.265625 C 190.839844 78.152344 188.628906 78.105469 186.417969 78.121094 C 184.203125 78.136719 181.992188 78.21875 179.785156 78.363281 C 177.574219 78.511719 175.375 78.71875 173.175781 78.996094 C 170.980469 79.269531 168.796875 79.609375 166.617188 80.011719 C 164.441406 80.417969 162.28125 80.882812 160.132812 81.414062 C 157.984375 81.941406 155.851562 82.535156 153.738281 83.191406 C 151.625 83.847656 149.53125 84.5625 147.457031 85.339844 C 145.386719 86.117188 143.339844 86.957031 141.316406 87.855469 C 139.292969 88.753906 137.300781 89.707031 135.332031 90.722656 C 133.367188 91.738281 131.429688 92.808594 129.527344 93.9375 C 127.621094 95.066406 125.753906 96.25 123.917969 97.488281 C 122.085938 98.726562 120.289062 100.019531 118.53125 101.363281 C 116.769531 102.703125 115.054688 104.097656 113.375 105.542969 C 111.699219 106.988281 110.066406 108.480469 108.476562 110.019531 C 106.886719 111.558594 105.34375 113.144531 103.847656 114.777344 C 102.351562 116.40625 100.902344 118.078125 99.503906 119.792969 C 98.105469 121.511719 96.761719 123.265625 95.464844 125.058594 C 94.171875 126.855469 92.929688 128.683594 91.742188 130.550781 C 90.550781 132.421875 89.421875 134.320312 88.34375 136.253906 C 87.265625 138.1875 86.25 140.152344 85.289062 142.144531 C 84.324219 144.136719 83.425781 146.160156 82.582031 148.203125 C 81.738281 150.25 80.957031 152.320312 80.234375 154.414062 C 79.511719 156.503906 78.855469 158.617188 78.257812 160.746094 C 77.660156 162.878906 77.125 165.027344 76.652344 167.1875 C 76.179688 169.351562 75.773438 171.523438 75.429688 173.710938 C 75.085938 175.898438 74.804688 178.089844 74.589844 180.292969 C 74.375 182.496094 74.222656 184.703125 74.136719 186.914062 C 74.050781 189.128906 74.03125 191.339844 74.074219 193.550781 C 74.117188 195.765625 74.226562 197.972656 74.402344 200.179688 C 74.574219 202.386719 74.8125 204.585938 75.113281 206.777344 C 75.417969 208.972656 75.785156 211.152344 76.214844 213.324219 C 76.644531 215.496094 77.140625 217.652344 77.695312 219.792969 C 78.253906 221.933594 78.871094 224.058594 79.554688 226.164062 C 80.234375 228.269531 80.976562 230.355469 81.78125 232.414062 C 82.585938 234.476562 83.449219 236.515625 84.371094 238.527344 C 85.296875 240.539062 86.277344 242.519531 87.316406 244.472656 C 88.355469 246.425781 89.453125 248.347656 90.605469 250.238281 C 91.753906 252.128906 92.960938 253.984375 94.222656 255.800781 C 95.484375 257.621094 96.796875 259.402344 98.164062 261.140625 C 99.527344 262.882812 100.945312 264.585938 102.410156 266.242188 C 103.875 267.902344 105.386719 269.515625 106.945312 271.085938 C 108.507812 272.65625 110.109375 274.179688 111.761719 275.65625 C 113.410156 277.128906 115.101562 278.558594 116.832031 279.933594 C 118.566406 281.308594 120.339844 282.636719 122.148438 283.90625 C 123.960938 285.179688 125.804688 286.398438 127.6875 287.5625 C 129.570312 288.726562 131.484375 289.835938 133.429688 290.890625 C 135.378906 291.941406 137.355469 292.933594 139.359375 293.871094 C 141.367188 294.808594 143.394531 295.683594 145.453125 296.5 C 147.511719 297.320312 149.589844 298.074219 151.691406 298.769531 C 150.757812 290.238281 150.398438 281.679688 150.613281 273.101562 C 148.863281 273.257812 147.15625 273.386719 145.519531 273.386719 C 143.652344 273.523438 141.789062 273.511719 139.921875 273.347656 C 138.058594 273.183594 136.21875 272.875 134.402344 272.414062 C 132.589844 271.953125 130.824219 271.351562 129.105469 270.609375 C 127.386719 269.863281 125.742188 268.988281 124.164062 267.976562 C 122.589844 266.96875 121.101562 265.839844 119.707031 264.589844 C 118.3125 263.34375 117.027344 261.992188 115.851562 260.535156 C 114.671875 259.078125 113.621094 257.539062 112.691406 255.914062 C 111.761719 254.289062 110.96875 252.601562 110.3125 250.847656 C 110.167969 250.40625 110.070312 249.957031 110.019531 249.5 C 109.96875 249.039062 109.960938 248.582031 110 248.121094 C 110.039062 247.660156 110.125 247.207031 110.253906 246.765625 C 110.382812 246.320312 110.554688 245.894531 110.769531 245.484375 C 110.984375 245.078125 111.238281 244.691406 111.53125 244.332031 C 111.820312 243.976562 112.144531 243.648438 112.503906 243.355469 C 112.859375 243.0625 113.242188 242.804688 113.648438 242.589844 C 114.058594 242.371094 114.480469 242.195312 114.925781 242.0625 C 115.367188 241.929688 115.820312 241.84375 116.277344 241.800781 C 116.738281 241.757812 117.199219 241.761719 117.65625 241.808594 C 118.117188 241.859375 118.566406 241.953125 119.007812 242.089844 C 119.449219 242.230469 119.871094 242.410156 120.277344 242.636719 C 120.679688 242.859375 121.058594 243.121094 121.410156 243.417969 C 121.765625 243.71875 122.082031 244.046875 122.371094 244.410156 C 122.65625 244.773438 122.902344 245.160156 123.113281 245.574219 C 123.320312 245.984375 123.488281 246.414062 123.613281 246.859375 C 124.15625 248.539062 130.082031 263.875 156.050781 258.335938 C 156.496094 258.238281 156.949219 258.1875 157.40625 258.175781 C 157.859375 258.167969 158.3125 258.207031 158.761719 258.285156 C 159.210938 258.367188 159.648438 258.492188 160.074219 258.660156 C 160.496094 258.828125 160.902344 259.035156 161.285156 259.28125 C 161.667969 259.527344 162.023438 259.8125 162.351562 260.128906 C 162.679688 260.445312 162.972656 260.792969 163.230469 261.167969 C 163.492188 261.546875 163.710938 261.941406 163.890625 262.363281 C 164.070312 262.78125 164.207031 263.214844 164.300781 263.660156 C 164.523438 264.773438 164.464844 265.875 164.128906 266.960938 C 164.300781 267.453125 164.417969 267.960938 164.472656 268.480469 C 164.546875 278.609375 164.644531 296.675781 164.644531 299.574219 C 164.664062 300.523438 164.574219 301.46875 164.382812 302.398438 C 164.191406 303.332031 163.902344 304.234375 163.511719 305.101562 C 163.121094 305.96875 162.640625 306.785156 162.070312 307.546875 C 161.496094 308.308594 160.851562 308.996094 160.125 309.617188 C 158.914062 310.605469 157.566406 311.355469 156.085938 311.863281 C 154.605469 312.371094 153.082031 312.609375 151.519531 312.574219 C 150.414062 312.578125 149.320312 312.480469 148.230469 312.285156 C 145.859375 311.511719 143.511719 310.671875 141.1875 309.761719 C 138.863281 308.847656 136.570312 307.871094 134.304688 306.824219 C 132.039062 305.777344 129.804688 304.667969 127.605469 303.488281 C 125.402344 302.3125 123.238281 301.070312 121.113281 299.765625 C 118.984375 298.460938 116.898438 297.097656 114.847656 295.667969 C 112.800781 294.242188 110.800781 292.753906 108.839844 291.210938 C 106.878906 289.664062 104.96875 288.0625 103.101562 286.40625 C 101.234375 284.746094 99.421875 283.035156 97.65625 281.269531 C 95.890625 279.507812 94.179688 277.691406 92.523438 275.824219 C 90.863281 273.960938 89.261719 272.046875 87.71875 270.089844 C 86.171875 268.128906 84.683594 266.125 83.257812 264.078125 C 81.828125 262.03125 80.464844 259.945312 79.160156 257.816406 C 77.855469 255.6875 76.613281 253.523438 75.4375 251.324219 C 74.257812 249.125 73.144531 246.890625 72.101562 244.625 C 71.054688 242.359375 70.074219 240.066406 69.164062 237.742188 C 68.253906 235.417969 67.410156 233.070312 66.640625 230.695312 C 65.867188 228.324219 65.164062 225.929688 64.53125 223.515625 C 63.898438 221.101562 63.339844 218.671875 62.851562 216.222656 C 62.359375 213.777344 61.945312 211.316406 61.601562 208.84375 C 61.253906 206.371094 60.984375 203.894531 60.785156 201.40625 C 60.585938 198.917969 60.460938 196.425781 60.410156 193.929688 C 60.359375 191.433594 60.378906 188.941406 60.476562 186.445312 C 60.570312 183.953125 60.738281 181.464844 60.980469 178.980469 C 61.222656 176.496094 61.535156 174.023438 61.921875 171.554688 C 62.308594 169.089844 62.769531 166.636719 63.300781 164.199219 C 63.832031 161.761719 64.433594 159.339844 65.105469 156.9375 C 65.78125 154.535156 66.523438 152.152344 67.339844 149.792969 C 68.152344 147.433594 69.035156 145.101562 69.984375 142.792969 C 70.9375 140.488281 71.953125 138.210938 73.039062 135.960938 C 74.125 133.714844 75.273438 131.5 76.488281 129.320312 C 77.707031 127.140625 78.984375 125 80.324219 122.894531 C 81.667969 120.789062 83.070312 118.726562 84.53125 116.703125 C 85.996094 114.683594 87.515625 112.707031 89.09375 110.773438 C 90.671875 108.839844 92.308594 106.957031 93.996094 105.121094 C 95.6875 103.28125 97.429688 101.496094 99.226562 99.765625 C 101.019531 98.03125 102.863281 96.351562 104.757812 94.726562 C 106.652344 93.097656 108.59375 91.53125 110.578125 90.019531 C 112.566406 88.507812 114.59375 87.058594 116.664062 85.664062 C 118.734375 84.273438 120.847656 82.945312 122.996094 81.675781 C 125.144531 80.410156 127.332031 79.203125 129.550781 78.066406 C 131.773438 76.925781 134.023438 75.855469 136.308594 74.847656 C 138.59375 73.839844 140.902344 72.902344 143.242188 72.03125 C 145.582031 71.160156 147.945312 70.359375 150.328125 69.628906 C 152.714844 68.894531 155.121094 68.234375 157.546875 67.644531 C 159.972656 67.054688 162.410156 66.535156 164.867188 66.089844 C 167.320312 65.644531 169.789062 65.269531 172.265625 64.96875 C 174.742188 64.667969 177.226562 64.4375 179.71875 64.285156 C 182.210938 64.128906 184.703125 64.046875 187.199219 64.039062 C 189.695312 64.03125 192.1875 64.09375 194.679688 64.234375 C 197.171875 64.371094 199.65625 64.582031 202.136719 64.867188 C 204.617188 65.152344 207.085938 65.507812 209.542969 65.9375 C 212 66.367188 214.445312 66.867188 216.875 67.441406 C 219.304688 68.015625 221.714844 68.660156 224.105469 69.375 C 226.496094 70.089844 228.863281 70.875 231.207031 71.730469 C 233.550781 72.585938 235.871094 73.507812 238.160156 74.5 C 240.449219 75.488281 242.710938 76.546875 244.9375 77.671875 C 247.167969 78.792969 249.359375 79.984375 251.519531 81.234375 C 253.675781 82.488281 255.796875 83.804688 257.878906 85.183594 C 259.957031 86.558594 261.996094 87.996094 263.992188 89.496094 C 265.992188 90.992188 267.941406 92.546875 269.847656 94.160156 C 271.75 95.773438 273.605469 97.4375 275.414062 99.160156 C 277.21875 100.882812 278.976562 102.65625 280.675781 104.480469 C 282.378906 106.304688 284.027344 108.179688 285.621094 110.101562 C 287.210938 112.023438 288.746094 113.988281 290.222656 116 C 291.699219 118.011719 293.117188 120.066406 294.472656 122.160156 C 295.828125 124.257812 297.121094 126.390625 298.351562 128.5625 C 299.582031 130.734375 300.746094 132.9375 301.847656 135.179688 C 302.945312 137.417969 303.980469 139.6875 304.949219 141.988281 C 305.914062 144.289062 306.8125 146.617188 307.640625 148.972656 C 308.472656 151.324219 309.234375 153.703125 309.921875 156.101562 C 310.613281 158.5 311.230469 160.914062 311.78125 163.347656 C 312.328125 165.785156 312.804688 168.234375 313.207031 170.695312 C 313.609375 173.160156 313.941406 175.632812 314.199219 178.113281 C 314.460938 180.597656 314.644531 183.082031 314.757812 185.578125 C 314.867188 188.070312 314.90625 190.5625 314.871094 193.058594 C 314.835938 195.554688 314.730469 198.046875 314.546875 200.535156 C 314.367188 203.023438 314.113281 205.507812 313.785156 207.980469 C 313.457031 210.457031 313.058594 212.917969 312.585938 215.367188 C 312.113281 217.820312 311.570312 220.253906 310.953125 222.671875 C 310.339844 225.089844 309.652344 227.488281 308.894531 229.867188 C 308.140625 232.246094 307.3125 234.597656 306.417969 236.929688 C 305.523438 239.257812 304.558594 241.558594 303.53125 243.832031 C 302.5 246.105469 301.402344 248.347656 300.242188 250.554688 C 299.078125 252.761719 297.851562 254.9375 296.5625 257.070312 C 295.269531 259.207031 293.917969 261.304688 292.507812 263.363281 C 291.09375 265.417969 289.621094 267.433594 288.085938 269.402344 C 286.554688 271.371094 284.96875 273.296875 283.320312 275.171875 C 281.675781 277.050781 279.976562 278.875 278.226562 280.652344 C 276.472656 282.429688 274.667969 284.152344 272.816406 285.824219 C 270.960938 287.492188 269.058594 289.109375 267.109375 290.667969 C 265.160156 292.226562 263.167969 293.726562 261.132812 295.167969 C 259.09375 296.609375 257.015625 297.988281 254.898438 299.308594 C 252.777344 300.628906 250.625 301.882812 248.429688 303.074219 C 246.238281 304.269531 244.011719 305.394531 241.753906 306.457031 C 239.496094 307.519531 237.207031 308.511719 234.890625 309.4375 C 232.574219 310.367188 230.230469 311.222656 227.863281 312.011719 Z M 227.949219 311.898438 "/>
</g>
</g>
</svg>
