<?xml version="1.0" encoding="UTF-8"?>
<svg xmlns="http://www.w3.org/2000/svg" xmlns:xlink="http://www.w3.org/1999/xlink" width="375pt" height="374.999991pt" viewBox="0 0 375 374.999991" version="1.2">
<defs>
<clipPath id="clip1">
  <path d="M 22.363281 22.363281 L 352.363281 22.363281 L 352.363281 352.363281 L 22.363281 352.363281 Z M 22.363281 22.363281 "/>
</clipPath>
</defs>
<g id="surface1">
<g clip-path="url(#clip1)" clip-rule="nonzero">
<path style=" stroke:none;fill-rule:nonzero;fill:rgb(49.798584%,54.119873%,59.21936%);fill-opacity:1;" d="M 324.863281 22.363281 L 49.863281 22.363281 C 34.683594 22.363281 22.363281 34.667969 22.363281 49.863281 L 22.363281 324.863281 C 22.363281 340.042969 34.683594 352.363281 49.863281 352.363281 L 324.863281 352.363281 C 340.042969 352.363281 352.363281 340.042969 352.363281 324.863281 L 352.363281 49.863281 C 352.363281 34.667969 340.042969 22.363281 324.863281 22.363281 Z M 270.027344 319.871094 C 250.542969 319.828125 234.746094 304.015625 234.746094 284.492188 C 234.746094 278.277344 236.355469 272.433594 239.074219 267.539062 L 190.59375 152.191406 C 190.386719 151.804688 189.632812 151.804688 189.632812 152.382812 L 187.15625 247.699219 C 186.578125 265.832031 163.078125 271.183594 156.203125 254.378906 C 146.085938 236.808594 117.816406 160.589844 92.40625 95.277344 C 91.648438 95.277344 90.878906 95.472656 89.929688 95.472656 C 78.847656 95.472656 69.867188 86.492188 69.867188 75.410156 C 69.867188 64.328125 78.847656 55.347656 89.929688 55.347656 C 101.011719 55.347656 109.992188 64.328125 109.992188 75.410156 C 109.976562 81.679688 107.089844 87.59375 102.167969 91.457031 L 162.53125 211.78125 C 162.625 211.933594 162.804688 212.003906 162.984375 211.960938 C 163.164062 211.917969 163.285156 211.769531 163.300781 211.589844 C 165.019531 184.417969 163.492188 161.925781 169.40625 138.054688 C 176.292969 112.835938 195.390625 112.066406 205.277344 129.832031 L 272.886719 249.210938 L 273.039062 249.222656 C 290.789062 251.164062 304.59375 266.191406 304.59375 284.449219 C 304.59375 303.699219 289.222656 319.375 270.027344 319.871094 Z M 270.027344 319.871094 "/>
</g>
</g>
</svg>
