<?xml version="1.0" encoding="UTF-8"?>
<svg xmlns="http://www.w3.org/2000/svg" xmlns:xlink="http://www.w3.org/1999/xlink" width="1200pt" height="487.499991pt" viewBox="0 0 1200 487.499991" version="1.2">
<defs>
<clipPath id="clip1">
  <path d="M 394.78125 19.695312 L 804.609375 19.695312 L 804.609375 467.667969 L 394.78125 467.667969 Z M 394.78125 19.695312 "/>
</clipPath>
</defs>
<g id="surface1">
<g clip-path="url(#clip1)" clip-rule="nonzero">
<path style=" stroke:none;fill-rule:nonzero;fill:rgb(69.799805%,29.019165%,18.818665%);fill-opacity:1;" d="M 773.957031 291.007812 C 720.824219 325.988281 709.640625 357.050781 700.652344 382.003906 C 691.160156 408.328125 683.675781 429.125 632.128906 446.769531 C 574.714844 466.449219 526.734375 464.257812 493.414062 440.421875 C 457.367188 414.65625 438.308594 364.171875 438.308594 294.421875 C 438.308594 294.234375 438.230469 294.0625 438.207031 293.890625 C 438.175781 293.703125 438.207031 293.527344 438.152344 293.332031 L 403 175.390625 C 401.394531 167.785156 402.84375 160.007812 407.101562 153.488281 C 411.40625 146.886719 418.050781 142.363281 425.792969 140.742188 C 441.707031 137.449219 457.40625 147.582031 460.773438 163.371094 C 460.882812 163.902344 461.101562 164.367188 461.398438 164.773438 L 482.988281 247.042969 C 483.433594 248.742188 484.96875 249.882812 486.667969 249.882812 C 486.980469 249.882812 487.308594 249.84375 487.628906 249.75 C 489.664062 249.21875 490.878906 247.136719 490.34375 245.109375 L 456.507812 116.195312 C 454.574219 108.675781 455.679688 100.851562 459.632812 94.160156 C 463.644531 87.371094 470.074219 82.566406 477.75 80.601562 C 493.492188 76.609375 509.640625 86.039062 513.703125 101.734375 L 547.367188 224.539062 C 547.921875 226.566406 549.996094 227.753906 552.039062 227.207031 C 553.644531 226.769531 554.675781 225.375 554.792969 223.808594 C 554.824219 223.644531 554.910156 223.496094 554.925781 223.316406 L 566.722656 56.015625 C 567.019531 39.90625 580.890625 26.914062 597.539062 27.308594 C 605.828125 27.457031 613.492188 30.773438 619.140625 36.640625 C 624.519531 42.207031 627.398438 49.472656 627.257812 56.980469 L 626.21875 78.472656 C 626.203125 78.808594 626.296875 79.105469 626.359375 79.40625 C 626.28125 80.054688 626.070312 80.65625 626.015625 81.320312 L 613.765625 229.375 C 613.59375 231.472656 615.148438 233.308594 617.238281 233.480469 C 619.328125 233.621094 621.175781 232.089844 621.347656 230 L 633.605469 81.910156 C 634.8125 65.828125 649.246094 53.722656 666.027344 54.890625 C 674.277344 55.476562 681.734375 59.191406 687.042969 65.328125 C 692.097656 71.195312 694.558594 78.605469 693.992188 86.195312 L 678.894531 276.941406 C 672.164062 285.390625 666.972656 294.5625 664.53125 304.179688 C 639.859375 300.828125 616.097656 306.363281 598.886719 319.46875 C 584.570312 330.359375 575.699219 346.003906 573.890625 363.53125 C 573.671875 365.617188 575.191406 367.488281 577.28125 367.699219 C 579.207031 367.917969 581.234375 366.410156 581.453125 364.3125 C 583.074219 348.679688 590.691406 335.265625 603.496094 325.53125 C 619.886719 313.050781 642.953125 308.191406 666.871094 312.222656 C 668.875 312.582031 670.878906 311.191406 671.246094 309.132812 C 677.375 274.773438 725.394531 244.414062 749.402344 237.777344 C 757.855469 235.445312 786.121094 229.335938 795.074219 248.78125 C 801.992188 263.78125 789.453125 280.804688 773.957031 291.007812 Z M 801.984375 245.601562 C 794.253906 228.804688 773.839844 223.136719 747.382812 230.4375 C 731.203125 234.914062 705.945312 248.757812 687.261719 267.550781 L 701.578125 86.78125 C 702.304688 77.144531 699.191406 67.761719 692.804688 60.367188 C 686.167969 52.667969 676.859375 48.027344 666.558594 47.292969 C 653.839844 46.375 642.238281 51.71875 634.703125 60.546875 L 634.859375 57.230469 C 635.046875 47.582031 631.414062 38.394531 624.628906 31.359375 C 617.5625 24.019531 607.988281 19.882812 597.671875 19.695312 C 597.445312 19.695312 597.226562 19.6875 596.992188 19.6875 C 576.421875 19.6875 559.492188 35.78125 559.121094 55.671875 L 548.851562 201.179688 L 521.058594 99.773438 C 515.957031 80.09375 495.707031 68.175781 475.871094 73.230469 C 466.214844 75.695312 458.128906 81.75 453.078125 90.28125 C 448.09375 98.730469 446.691406 108.613281 449.148438 118.113281 L 455.128906 140.898438 C 446.738281 134.160156 435.59375 130.9375 424.25 133.300781 C 414.5 135.335938 406.148438 141.03125 400.730469 149.328125 C 395.363281 157.558594 393.523438 167.371094 395.628906 177.261719 L 430.703125 295.007812 C 430.820312 367.019531 450.964844 419.4375 488.992188 446.621094 C 508.613281 460.636719 532.808594 467.675781 560.671875 467.675781 C 583.105469 467.675781 607.910156 463.117188 634.601562 453.976562 C 689.59375 435.148438 698.039062 411.714844 707.800781 384.585938 C 716.863281 359.445312 727.117188 330.949219 778.136719 297.355469 C 796.359375 285.359375 810.796875 264.703125 801.984375 245.601562 "/>
</g>
</g>
</svg>
