<?xml version="1.0" encoding="UTF-8"?>
<svg xmlns="http://www.w3.org/2000/svg" xmlns:xlink="http://www.w3.org/1999/xlink" width="375pt" height="374.999991pt" viewBox="0 0 375 374.999991" version="1.2">
<defs>
<clipPath id="clip1">
  <path d="M 22.601562 22.601562 L 352.601562 22.601562 L 352.601562 352.601562 L 22.601562 352.601562 Z M 22.601562 22.601562 "/>
</clipPath>
</defs>
<g id="surface1">
<g clip-path="url(#clip1)" clip-rule="nonzero">
<path style=" stroke:none;fill-rule:nonzero;fill:rgb(49.798584%,54.119873%,59.21936%);fill-opacity:1;" d="M 315.9375 22.601562 L 59.269531 22.601562 C 39.011719 22.601562 22.601562 39.011719 22.601562 59.269531 L 22.601562 315.9375 C 22.601562 336.195312 39.011719 352.601562 59.269531 352.601562 L 315.9375 352.601562 C 336.195312 352.601562 352.601562 336.195312 352.601562 315.9375 L 352.601562 59.269531 C 352.601562 39.011719 336.195312 22.601562 315.9375 22.601562 Z M 132.601562 279.269531 L 86.347656 279.269531 L 86.347656 150.9375 L 132.601562 150.9375 Z M 108.660156 127.414062 C 94.523438 127.414062 85.082031 117.992188 85.082031 105.414062 C 85.082031 92.835938 94.507812 83.414062 110.21875 83.414062 C 124.351562 83.414062 133.792969 92.835938 133.792969 105.414062 C 133.792969 117.992188 124.371094 127.414062 108.660156 127.414062 Z M 297.601562 279.269531 L 252.832031 279.269531 L 252.832031 209.125 C 252.832031 189.730469 240.898438 185.257812 236.425781 185.257812 C 231.949219 185.257812 217.027344 188.246094 217.027344 209.125 C 217.027344 212.113281 217.027344 279.269531 217.027344 279.269531 L 170.773438 279.269531 L 170.773438 150.9375 L 217.027344 150.9375 L 217.027344 168.847656 C 222.984375 158.398438 234.921875 150.9375 257.304688 150.9375 C 279.691406 150.9375 297.601562 168.847656 297.601562 209.125 Z M 297.601562 279.269531 "/>
</g>
</g>
</svg>
