<?xml version="1.0" encoding="UTF-8"?>
<svg xmlns="http://www.w3.org/2000/svg" xmlns:xlink="http://www.w3.org/1999/xlink" width="375pt" height="374.999991pt" viewBox="0 0 375 374.999991" version="1.2">
<defs>
<clipPath id="clip1">
  <path d="M 22.601562 22.601562 L 352.601562 22.601562 L 352.601562 352.601562 L 22.601562 352.601562 Z M 22.601562 22.601562 "/>
</clipPath>
</defs>
<g id="surface1">
<g clip-path="url(#clip1)" clip-rule="nonzero">
<path style=" stroke:none;fill-rule:nonzero;fill:rgb(49.798584%,54.119873%,59.21936%);fill-opacity:1;" d="M 344.746094 22.601562 L 30.460938 22.601562 C 26.121094 22.601562 22.601562 26.121094 22.601562 30.460938 L 22.601562 344.746094 C 22.601562 349.082031 26.121094 352.601562 30.460938 352.601562 L 344.746094 352.601562 C 349.082031 352.601562 352.601562 349.082031 352.601562 344.746094 L 352.601562 30.460938 C 352.601562 26.121094 349.082031 22.601562 344.746094 22.601562 Z M 305.460938 97.246094 L 291.152344 114.507812 C 290.25 115.402344 289.746094 116.613281 289.746094 117.871094 L 289.746094 248.496094 C 289.746094 249.753906 290.25 250.960938 291.152344 251.859375 L 305.460938 270.464844 L 305.460938 274.03125 L 226.886719 274.03125 L 226.886719 270.464844 L 249.054688 251.859375 C 249.957031 250.960938 250.460938 249.753906 250.460938 248.496094 L 250.460938 131.652344 L 186.410156 274.03125 L 174.277344 274.03125 L 109.03125 135.550781 L 109.03125 238.539062 C 109.03125 240.269531 109.628906 241.941406 110.71875 243.292969 L 132.601562 270.464844 L 132.601562 274.03125 L 69.746094 274.03125 L 69.746094 270.464844 L 91.613281 243.453125 C 92.710938 242.101562 93.316406 240.410156 93.316406 238.675781 L 93.316406 119.9375 C 93.316406 118.820312 92.925781 117.746094 92.203125 116.886719 L 77.601562 97.246094 L 77.601562 93.316406 L 133.363281 93.316406 L 193.269531 220.46875 L 250.476562 93.316406 L 305.460938 93.316406 Z M 305.460938 97.246094 "/>
</g>
</g>
</svg>
