<?xml version="1.0" encoding="UTF-8"?>
<svg xmlns="http://www.w3.org/2000/svg" xmlns:xlink="http://www.w3.org/1999/xlink" width="375pt" height="374.999991pt" viewBox="0 0 375 374.999991" version="1.2">
<defs>
<clipPath id="clip1">
  <path d="M 22.390625 22.390625 L 352.390625 22.390625 L 352.390625 352.390625 L 22.390625 352.390625 Z M 22.390625 22.390625 "/>
</clipPath>
</defs>
<g id="surface1">
<g clip-path="url(#clip1)" clip-rule="nonzero">
<path style=" stroke:none;fill-rule:nonzero;fill:rgb(49.798584%,54.119873%,59.21936%);fill-opacity:1;" d="M 311.140625 352.390625 L 63.640625 352.390625 C 40.867188 352.390625 22.390625 333.910156 22.390625 311.140625 L 22.390625 63.640625 C 22.390625 40.867188 40.867188 22.390625 63.640625 22.390625 L 311.140625 22.390625 C 333.910156 22.390625 352.390625 40.867188 352.390625 63.640625 L 352.390625 311.140625 C 352.390625 333.910156 333.910156 352.390625 311.140625 352.390625 Z M 149.109375 271.207031 C 226.90625 271.207031 269.476562 206.695312 269.476562 150.839844 C 269.476562 149.027344 269.476562 147.210938 269.394531 145.394531 C 277.644531 139.457031 284.820312 131.949219 290.515625 123.453125 C 282.921875 126.832031 274.757812 129.0625 266.175781 130.132812 C 274.921875 124.9375 281.605469 116.605469 284.820312 106.703125 C 276.652344 111.570312 267.578125 115.035156 257.925781 116.933594 C 250.171875 108.683594 239.199219 103.570312 227.070312 103.570312 C 203.722656 103.570312 184.75 122.542969 184.75 145.890625 C 184.75 149.191406 185.160156 152.410156 185.820312 155.542969 C 150.675781 153.8125 119.492188 136.898438 98.617188 111.324219 C 94.988281 117.59375 92.925781 124.855469 92.925781 132.609375 C 92.925781 147.292969 100.433594 160.246094 111.734375 167.835938 C 104.804688 167.589844 98.289062 165.691406 92.597656 162.554688 C 92.597656 162.722656 92.597656 162.886719 92.597656 163.132812 C 92.597656 183.59375 107.199219 200.753906 126.503906 204.632812 C 122.957031 205.621094 119.242188 206.117188 115.367188 206.117188 C 112.644531 206.117188 110.003906 205.867188 107.445312 205.375 C 112.808594 222.203125 128.484375 234.414062 146.964844 234.742188 C 132.445312 246.128906 114.210938 252.894531 94.410156 252.894531 C 91.027344 252.894531 87.644531 252.730469 84.347656 252.316406 C 102.992188 264.195312 125.265625 271.207031 149.109375 271.207031 "/>
</g>
</g>
</svg>
