<?xml version="1.0" standalone="no"?>
<!DOCTYPE svg PUBLIC "-//W3C//DTD SVG 20010904//EN"
 "http://www.w3.org/TR/2001/REC-SVG-20010904/DTD/svg10.dtd">
<svg version="1.0" xmlns="http://www.w3.org/2000/svg"
 width="256.000000pt" height="256.000000pt" viewBox="0 0 256.000000 256.000000"
 preserveAspectRatio="xMidYMid meet">
<metadata>
Created by potrace 1.14, written by Peter Selinger 2001-2017
</metadata>
<g transform="translate(0.000000,256.000000) scale(0.100000,-0.100000)"
fill="#000000" stroke="none">
<path d="M1300 2470 c0 -5 14 -10 31 -10 17 0 28 4 24 10 -3 6 -17 10 -31 10
-13 0 -24 -4 -24 -10z"/>
<path d="M1040 2450 c0 -5 -16 -10 -35 -10 -22 0 -44 -8 -57 -20 -12 -11 -30
-20 -39 -20 -10 0 -21 -4 -24 -10 -3 -5 -15 -10 -26 -10 -10 0 -19 -4 -19 -10
0 -5 -9 -10 -20 -10 -11 0 -20 -4 -20 -10 0 -5 -7 -10 -16 -10 -9 0 -24 -8
-33 -18 -24 -27 -77 -62 -94 -62 -8 0 -17 -7 -21 -15 -4 -11 -11 -13 -31 -5
-17 6 -25 6 -25 -1 0 -21 -30 -39 -64 -39 -20 0 -36 -4 -36 -10 0 -5 -9 -10
-20 -10 -11 0 -20 -6 -20 -14 0 -9 -8 -12 -24 -9 -32 6 -96 -55 -96 -91 0 -14
-4 -26 -10 -26 -5 0 -10 -18 -10 -39 0 -22 -4 -43 -10 -46 -5 -3 -10 -21 -10
-40 0 -19 -4 -37 -10 -40 -6 -3 -10 -22 -10 -42 0 -20 -3 -33 -7 -30 -3 4 -11
-3 -17 -16 -8 -14 -21 -22 -39 -23 -15 -1 -35 -11 -46 -23 -10 -11 -24 -21
-31 -21 -16 0 -60 -47 -60 -65 0 -7 -5 -15 -10 -17 -10 -3 -16 -145 -7 -155 3
-2 1 -18 -3 -34 -6 -21 -5 -33 6 -43 16 -17 19 -46 3 -46 -5 0 -7 -4 -4 -10 3
-5 -6 -19 -20 -32 -23 -20 -25 -28 -25 -105 0 -76 2 -86 25 -108 29 -30 35
-31 35 -5 0 11 4 20 8 20 9 0 11 11 12 75 1 22 -4 41 -9 43 -22 7 -10 22 18
22 16 0 32 6 35 13 5 10 7 10 12 0 3 -7 14 -13 25 -13 16 0 19 -7 19 -40 0
-22 5 -40 10 -40 6 0 10 -18 10 -40 0 -22 5 -40 10 -40 6 0 10 -8 10 -19 0
-10 7 -24 15 -31 9 -7 13 -15 11 -17 -3 -3 54 -63 125 -134 115 -114 149 -159
120 -159 -5 0 -9 -31 -10 -68 -1 -57 2 -70 19 -82 12 -8 20 -26 20 -42 0 -15
5 -28 10 -28 6 0 10 -7 10 -16 0 -9 13 -28 30 -44 16 -15 26 -31 22 -35 -4 -4
2 -5 13 -4 14 3 40 -16 83 -59 34 -34 67 -62 73 -62 6 0 17 -7 26 -15 8 -8 19
-12 25 -9 16 10 123 5 126 -6 2 -6 26 -10 53 -10 38 0 49 -4 49 -15 0 -18 -44
-65 -60 -65 -6 0 -19 -4 -30 -10 -11 -5 -29 -14 -40 -20 -11 -5 -40 -10 -65
-10 -25 0 -45 -4 -45 -10 0 -5 -18 -10 -40 -10 -22 0 -40 -4 -40 -10 0 -5 -22
-10 -48 -10 -36 0 -51 -5 -62 -20 -8 -11 -21 -20 -30 -20 -9 0 -22 -9 -30 -20
-8 -11 -22 -20 -32 -20 -10 0 -18 -4 -18 -10 0 -7 350 -10 1030 -10 l1030 0 0
90 c0 83 -1 90 -20 90 -11 0 -20 7 -20 15 0 13 -4 14 -20 5 -16 -9 -20 -8 -20
5 0 10 -10 15 -30 15 -16 0 -30 5 -30 10 0 6 -9 10 -20 10 -11 0 -20 5 -20 10
0 6 -6 10 -13 10 -18 0 -67 24 -67 33 0 4 -13 7 -30 7 -16 0 -30 5 -30 11 0 7
-12 10 -30 7 -20 -3 -30 0 -30 9 0 7 -8 13 -19 13 -29 0 -47 28 -33 51 7 10
12 48 12 84 0 37 4 65 10 65 6 0 10 14 10 30 0 17 4 30 9 30 5 0 9 17 9 37 0
21 5 39 11 41 6 2 11 12 11 23 0 10 5 19 10 19 6 0 10 11 10 25 0 14 9 35 20
47 11 12 20 31 20 42 0 24 72 76 78 57 7 -21 22 -11 22 15 0 26 -23 58 -34 47
-3 -4 -6 5 -6 18 0 14 -9 31 -20 39 -11 8 -20 22 -20 32 0 10 -4 18 -10 18
-14 0 -12 86 3 111 10 17 10 23 0 26 -7 3 -13 13 -13 23 0 10 -13 28 -30 40
-16 12 -30 26 -30 31 0 6 -9 29 -20 51 -21 44 -27 118 -10 118 6 0 10 11 10
25 0 26 17 65 35 77 5 4 8 23 7 43 -2 20 1 35 7 35 14 0 14 67 1 75 -5 3 -10
46 -10 96 0 53 -4 89 -10 89 -5 0 -10 11 -10 24 0 14 -5 28 -11 32 -6 3 -9 15
-6 25 3 11 -1 25 -8 33 -8 7 -12 16 -9 18 2 3 -2 11 -11 18 -8 7 -15 19 -15
26 0 18 -127 144 -145 144 -8 0 -15 5 -15 10 0 6 -7 10 -16 10 -9 0 -25 10
-35 21 -12 14 -26 20 -39 16 -13 -3 -23 0 -27 9 -3 8 -18 14 -33 14 -16 0 -30
5 -32 11 -4 11 -58 14 -102 6 -11 -2 -37 -1 -58 3 -21 4 -41 4 -43 0 -3 -4
-20 -5 -37 -1 -39 9 -106 3 -114 -10 -3 -5 -34 -9 -70 -9 -67 0 -94 13 -94 44
0 9 -4 16 -10 16 -5 0 -10 9 -10 21 0 14 -5 19 -14 16 -8 -3 -17 1 -20 9 -3 8
-15 14 -26 14 -11 0 -20 5 -20 10 0 6 -18 10 -40 10 -22 0 -40 5 -40 10 0 6
-13 10 -30 10 -16 0 -30 -4 -30 -10z"/>
</g>
</svg>
